<?xml version="1.0"?>

<svg xmlns="http://www.w3.org/2000/svg" style="display:none">

  
  <symbol id="s7-swift" viewBox="0 0 24 24" fill="none" stroke="currentColor" stroke-width="2" stroke-linecap="round" stroke-linejoin="round">
    <path d="M2 13c5.5.5 9-1.5 12-6-.5 3.2-1.6 5.4-3.6 6.8 3.3.2 6.4-1.8 8.6-6.3-.4 7.2-5.2 12.4-11.4 10.2C5 16.9 3.4 15.2 2 13Z"></path>
    <path d="M12.5 17.5 11 21"></path>
  </symbol>

  
  <symbol id="s7-bolt" viewBox="0 0 24 24" fill="none" stroke="currentColor" stroke-width="2" stroke-linecap="round" stroke-linejoin="round">
    <path d="M13 2 4 13.5h6L9 22l9-11.5h-6L13 2Z"></path>
  </symbol>

  
  <symbol id="s7-seven-day" viewBox="0 0 24 24" fill="none" stroke="currentColor" stroke-width="2" stroke-linecap="round" stroke-linejoin="round">
    <rect x="3" y="5" width="18" height="16" rx="2"></rect>
    <path d="M3 9.5h18M8 3v3M16 3v3"></path>
    <path d="M9.5 12.5h5l-2.6 6"></path>
  </symbol>

  
  <symbol id="s7-tag" viewBox="0 0 24 24" fill="none" stroke="currentColor" stroke-width="2" stroke-linecap="round" stroke-linejoin="round">
    <path d="M3.5 3.5h7.3a2 2 0 0 1 1.4.6l8 8a2 2 0 0 1 0 2.8l-5.8 5.8a2 2 0 0 1-2.8 0l-8-8a2 2 0 0 1-.6-1.4V3.5Z"></path>
    <circle cx="7.5" cy="7.5" r="1.4"></circle>
  </symbol>

  
  <symbol id="s7-rocket" viewBox="0 0 24 24" fill="none" stroke="currentColor" stroke-width="2" stroke-linecap="round" stroke-linejoin="round">
    <path d="M14.5 3.5c3-1 6.5 0 6.5 0s1 3.5 0 6.5c-1.2 3.6-5 7.5-8.5 9l-3.5-3.5c1.5-3.5 5.4-7.3 9-8.5"></path>
    <circle cx="14.5" cy="9.5" r="1.6"></circle>
    <path d="M9 15c-2 .6-3.2 2.4-3.5 5 2.6-.3 4.4-1.5 5-3.5"></path>
    <path d="M5 12c-1-.2-2 .2-2.7.9M12 19c.2 1-.2 2-.9 2.7"></path>
  </symbol>

  
  <symbol id="s7-search" viewBox="0 0 24 24" fill="none" stroke="currentColor" stroke-width="2" stroke-linecap="round" stroke-linejoin="round">
    <circle cx="10.5" cy="10.5" r="7"></circle>
    <path d="m20.5 20.5-5-5"></path>
  </symbol>

  
  <symbol id="s7-pin" viewBox="0 0 24 24" fill="none" stroke="currentColor" stroke-width="2" stroke-linecap="round" stroke-linejoin="round">
    <path d="M12 21.5c4.5-4 7-7.4 7-11a7 7 0 1 0-14 0c0 3.6 2.5 7 7 11Z"></path>
    <circle cx="12" cy="10.5" r="2.5"></circle>
  </symbol>

  
  <symbol id="s7-phone" viewBox="0 0 24 24" fill="none" stroke="currentColor" stroke-width="2" stroke-linecap="round" stroke-linejoin="round">
    <path d="M6.5 3.5h3l1.5 4-2 1.5a12 12 0 0 0 6 6l1.5-2 4 1.5v3a2 2 0 0 1-2.2 2A17.5 17.5 0 0 1 4.5 5.7 2 2 0 0 1 6.5 3.5Z"></path>
  </symbol>

  
  <symbol id="s7-mail" viewBox="0 0 24 24" fill="none" stroke="currentColor" stroke-width="2" stroke-linecap="round" stroke-linejoin="round">
    <rect x="3" y="5" width="18" height="14" rx="2"></rect>
    <path d="m3.5 6.5 8.5 6.5 8.5-6.5"></path>
  </symbol>

  
  <symbol id="s7-chat" viewBox="0 0 24 24" fill="none" stroke="currentColor" stroke-width="2" stroke-linecap="round" stroke-linejoin="round">
    <path d="M4 5h16a1 1 0 0 1 1 1v9a1 1 0 0 1-1 1H9l-4.5 4V6a1 1 0 0 1 1-1Z"></path>
    <path d="M8.5 10.5h7M8.5 13h4"></path>
  </symbol>

  
  <symbol id="s7-browser" viewBox="0 0 24 24" fill="none" stroke="currentColor" stroke-width="2" stroke-linecap="round" stroke-linejoin="round">
    <rect x="3" y="4" width="18" height="16" rx="2"></rect>
    <path d="M3 8.5h18"></path>
    <path d="M6 6.2h.01M8.5 6.2h.01"></path>
  </symbol>

  
  <symbol id="s7-mobile" viewBox="0 0 24 24" fill="none" stroke="currentColor" stroke-width="2" stroke-linecap="round" stroke-linejoin="round">
    <rect x="7" y="2.5" width="10" height="19" rx="2.5"></rect>
    <path d="M11 18.5h2"></path>
  </symbol>

  
  <symbol id="s7-gauge" viewBox="0 0 24 24" fill="none" stroke="currentColor" stroke-width="2" stroke-linecap="round" stroke-linejoin="round">
    <path d="M3.5 16a8.5 8.5 0 1 1 17 0"></path>
    <path d="M12 16l4.2-4.2"></path>
    <circle cx="12" cy="16" r="1.3"></circle>
  </symbol>

  
  <symbol id="s7-shield" viewBox="0 0 24 24" fill="none" stroke="currentColor" stroke-width="2" stroke-linecap="round" stroke-linejoin="round">
    <path d="M12 21.5c5-2.3 8-6 8-10.5V5l-8-3-8 3v6c0 4.5 3 8.2 8 10.5Z"></path>
    <path d="m8.8 11.5 2.2 2.2 4.2-4.4"></path>
  </symbol>

  
  <symbol id="s7-pen" viewBox="0 0 24 24" fill="none" stroke="currentColor" stroke-width="2" stroke-linecap="round" stroke-linejoin="round">
    <path d="M4 20l1-4L16 5l3 3L8 19l-4 1Z"></path>
    <path d="m14 7 3 3"></path>
  </symbol>

  
  <symbol id="s7-key" viewBox="0 0 24 24" fill="none" stroke="currentColor" stroke-width="2" stroke-linecap="round" stroke-linejoin="round">
    <circle cx="15.5" cy="8.5" r="4.5"></circle>
    <path d="m12.3 11.7-8.8 8.8M7 16l2.2 2.2M5 18l1.6 1.6"></path>
  </symbol>

  
  <symbol id="s7-star" viewBox="0 0 24 24" fill="none" stroke="currentColor" stroke-width="2" stroke-linecap="round" stroke-linejoin="round">
    <path d="M12 3l2.7 5.6 6.1.8-4.5 4.2 1.2 6L12 17.9 6.5 19.6l1.2-6L3.2 9.4l6.1-.8L12 3Z"></path>
  </symbol>

  
  <symbol id="s7-pages" viewBox="0 0 24 24" fill="none" stroke="currentColor" stroke-width="2" stroke-linecap="round" stroke-linejoin="round">
    <path d="M12 3 21 8l-9 5-9-5 9-5Z"></path>
    <path d="m3 13 9 5 9-5"></path>
  </symbol>

  
  <symbol id="s7-headset" viewBox="0 0 24 24" fill="none" stroke="currentColor" stroke-width="2" stroke-linecap="round" stroke-linejoin="round">
    <path d="M4 13a8 8 0 0 1 16 0"></path>
    <path d="M4 13.5v3a2 2 0 0 0 2 2h1v-7H6a2 2 0 0 0-2 2ZM20 13.5v3a2 2 0 0 1-2 2 4 4 0 0 1-3 1.5"></path>
  </symbol>

  <symbol id="s7-star-fill" viewBox="0 0 24 24" fill="currentColor" stroke="none">
    <path d="M12 3l2.7 5.6 6.1.8-4.5 4.2 1.2 6L12 17.9 6.5 19.6l1.2-6L3.2 9.4l6.1-.8L12 3Z"></path>
  </symbol>

</svg>